<svg width="580" height="117" viewBox="0 0 580 117" fill="none" xmlns="http://www.w3.org/2000/svg">
<path d="M213.137 98.1741V96.6424H224.317V98.1741H219.207L219.607 97.7626V111H217.824V97.7626L218.224 98.1741H213.137ZM234.536 111V104.576C234.536 103.532 234.284 102.739 233.781 102.198C233.286 101.649 232.608 101.375 231.747 101.375C231.091 101.375 230.524 101.554 230.043 101.912C229.563 102.27 229.194 102.785 228.935 103.455C228.676 104.118 228.546 104.911 228.546 105.833H227.86C227.86 104.56 228.028 103.474 228.363 102.575C228.698 101.676 229.186 100.99 229.826 100.518C230.474 100.037 231.259 99.7974 232.181 99.7974C233.042 99.7974 233.778 99.9917 234.387 100.38C235.005 100.761 235.477 101.31 235.805 102.026C236.133 102.743 236.296 103.593 236.296 104.576V111H234.536ZM226.763 111V95.4078H228.546V111H226.763ZM244.356 111.274C243.411 111.274 242.565 111.034 241.818 110.554C241.079 110.066 240.492 109.392 240.058 108.531C239.631 107.67 239.417 106.679 239.417 105.559C239.417 104.362 239.631 103.333 240.058 102.472C240.484 101.611 241.067 100.952 241.807 100.495C242.553 100.03 243.403 99.7974 244.356 99.7974C245.186 99.7974 245.895 99.965 246.482 100.3C247.069 100.636 247.541 101.089 247.899 101.661C248.258 102.232 248.505 102.88 248.642 103.604C248.787 104.32 248.829 105.063 248.768 105.833H240.858V104.736H247.591L247.065 105.079C247.088 104.629 247.061 104.179 246.985 103.73C246.916 103.28 246.783 102.869 246.585 102.495C246.387 102.114 246.109 101.809 245.75 101.581C245.392 101.352 244.935 101.238 244.379 101.238C243.677 101.238 243.091 101.417 242.618 101.775C242.146 102.133 241.791 102.606 241.555 103.192C241.319 103.772 241.201 104.4 241.201 105.079V105.81C241.201 106.572 241.315 107.254 241.544 107.856C241.78 108.458 242.13 108.935 242.595 109.285C243.06 109.636 243.647 109.811 244.356 109.811C245.064 109.811 245.647 109.64 246.105 109.297C246.562 108.954 246.84 108.447 246.939 107.776H248.791C248.677 108.5 248.418 109.125 248.014 109.651C247.61 110.169 247.095 110.569 246.471 110.851C245.846 111.133 245.141 111.274 244.356 111.274ZM265.503 111V104.576C265.503 103.532 265.252 102.739 264.749 102.198C264.253 101.649 263.575 101.375 262.714 101.375C262.058 101.375 261.491 101.554 261.011 101.912C260.53 102.27 260.161 102.785 259.902 103.455C259.643 104.118 259.513 104.911 259.513 105.833H258.827C258.827 104.56 258.995 103.474 259.33 102.575C259.665 101.676 260.153 100.99 260.793 100.518C261.441 100.037 262.226 99.7974 263.148 99.7974C264.009 99.7974 264.745 99.9917 265.354 100.38C265.972 100.761 266.444 101.31 266.772 102.026C267.1 102.743 267.263 103.593 267.263 104.576V111H265.503ZM257.73 111V95.4078H259.513V111H257.73ZM278.295 111L278.066 108.599V103.913C278.066 102.93 277.857 102.225 277.438 101.798C277.018 101.363 276.39 101.146 275.551 101.146C275.079 101.146 274.648 101.215 274.26 101.352C273.879 101.489 273.574 101.703 273.345 101.992C273.124 102.274 273.014 102.64 273.014 103.09H271.025C271.025 102.297 271.219 101.661 271.608 101.181C271.996 100.693 272.53 100.342 273.208 100.129C273.894 99.9079 274.675 99.7974 275.551 99.7974C276.39 99.7974 277.133 99.9384 277.781 100.22C278.428 100.502 278.935 100.952 279.301 101.569C279.667 102.179 279.85 102.975 279.85 103.958V111H278.295ZM274.568 111.274C273.669 111.274 272.926 111.114 272.339 110.794C271.752 110.474 271.314 110.059 271.025 109.548C270.735 109.038 270.59 108.5 270.59 107.936C270.59 107.197 270.773 106.595 271.139 106.13C271.512 105.665 272.019 105.326 272.659 105.113C273.299 104.892 274.02 104.781 274.82 104.781C275.391 104.781 275.963 104.839 276.535 104.953C277.114 105.067 277.678 105.223 278.226 105.422V106.542C277.769 106.359 277.251 106.214 276.672 106.107C276.1 106.001 275.574 105.947 275.094 105.947C274.363 105.947 273.745 106.1 273.242 106.405C272.739 106.702 272.488 107.212 272.488 107.936C272.488 108.47 272.678 108.927 273.059 109.308C273.448 109.689 274.065 109.88 274.911 109.88C275.506 109.88 276.039 109.743 276.512 109.468C276.992 109.186 277.369 108.836 277.643 108.417C277.925 107.997 278.066 107.578 278.066 107.159H278.501C278.501 107.891 278.341 108.569 278.021 109.194C277.708 109.819 277.259 110.322 276.672 110.703C276.085 111.084 275.384 111.274 274.568 111.274ZM291.893 111V104.576C291.893 103.532 291.642 102.739 291.139 102.198C290.643 101.649 289.965 101.375 289.104 101.375C288.449 101.375 287.881 101.554 287.401 101.912C286.921 102.27 286.551 102.785 286.292 103.455C286.033 104.118 285.903 104.911 285.903 105.833H285.217C285.217 104.56 285.385 103.474 285.72 102.575C286.056 101.676 286.543 100.99 287.183 100.518C287.831 100.037 288.616 99.7974 289.538 99.7974C290.399 99.7974 291.135 99.9917 291.745 100.38C292.362 100.761 292.834 101.31 293.162 102.026C293.49 102.743 293.654 103.593 293.654 104.576V111H291.893ZM284.12 111V100.072H285.652L285.903 102.587V111H284.12ZM301.827 111.274C300.943 111.274 300.132 111.038 299.392 110.566C298.653 110.086 298.063 109.415 297.621 108.554C297.179 107.685 296.958 106.664 296.958 105.49C296.958 104.324 297.175 103.314 297.609 102.461C298.043 101.607 298.619 100.952 299.335 100.495C300.059 100.03 300.852 99.7974 301.713 99.7974C302.513 99.7974 303.214 99.9917 303.816 100.38C304.426 100.769 304.898 101.329 305.234 102.061C305.569 102.792 305.737 103.676 305.737 104.713H305.051C305.051 103.989 304.906 103.379 304.616 102.884C304.334 102.388 303.965 102.015 303.508 101.764C303.05 101.504 302.559 101.375 302.033 101.375C301.439 101.375 300.894 101.543 300.398 101.878C299.911 102.206 299.518 102.678 299.221 103.295C298.931 103.905 298.787 104.637 298.787 105.49C298.787 106.359 298.931 107.106 299.221 107.731C299.518 108.356 299.911 108.836 300.398 109.171C300.894 109.506 301.439 109.674 302.033 109.674C302.528 109.674 303.005 109.544 303.462 109.285C303.927 109.026 304.308 108.649 304.605 108.154C304.902 107.651 305.051 107.045 305.051 106.336H305.737C305.737 107.395 305.561 108.295 305.211 109.034C304.868 109.765 304.399 110.322 303.805 110.703C303.218 111.084 302.559 111.274 301.827 111.274ZM305.348 111L305.051 108.439V95.4078H306.834V111H305.348ZM320.851 111.274C319.868 111.274 318.991 111.057 318.221 110.623C317.459 110.188 316.857 109.544 316.415 108.691C315.973 107.837 315.752 106.786 315.752 105.536C315.752 104.278 315.973 103.227 316.415 102.381C316.857 101.527 317.459 100.883 318.221 100.449C318.991 100.015 319.868 99.7974 320.851 99.7974C321.826 99.7974 322.695 100.015 323.457 100.449C324.227 100.883 324.829 101.527 325.263 102.381C325.705 103.227 325.926 104.278 325.926 105.536C325.926 106.786 325.705 107.837 325.263 108.691C324.829 109.544 324.227 110.188 323.457 110.623C322.695 111.057 321.826 111.274 320.851 111.274ZM320.805 109.72C321.514 109.72 322.116 109.552 322.611 109.217C323.106 108.874 323.48 108.39 323.731 107.765C323.99 107.14 324.12 106.397 324.12 105.536C324.12 104.233 323.849 103.208 323.308 102.461C322.767 101.706 321.963 101.329 320.896 101.329C320.18 101.329 319.574 101.501 319.079 101.844C318.591 102.179 318.218 102.663 317.959 103.295C317.707 103.92 317.581 104.667 317.581 105.536C317.581 106.824 317.852 107.845 318.393 108.599C318.942 109.346 319.746 109.72 320.805 109.72ZM329.993 111V98.3799C329.993 97.6559 330.13 97.0653 330.404 96.6081C330.686 96.1432 331.06 95.8002 331.525 95.5792C331.997 95.3582 332.523 95.2477 333.102 95.2477C333.415 95.2477 333.731 95.2706 334.051 95.3163C334.379 95.3621 334.702 95.4306 335.023 95.5221L334.68 96.9396C334.451 96.8481 334.222 96.7795 333.994 96.7338C333.773 96.6881 333.559 96.6652 333.354 96.6652C333.11 96.6652 332.866 96.7109 332.622 96.8024C332.378 96.8938 332.176 97.0653 332.016 97.3168C331.856 97.5683 331.776 97.9303 331.776 98.4028V111H329.993ZM328.209 101.306V100.072H334.039V101.306H328.209ZM342.66 96.6424H345.221L350.159 106.565H349.976L354.915 96.6424H357.407V111H355.601V98.4942H355.921L350.662 109.194H349.473L344.238 98.5628H344.444V111H342.66V96.6424ZM365.973 111.274C364.99 111.274 364.113 111.057 363.344 110.623C362.582 110.188 361.979 109.544 361.537 108.691C361.095 107.837 360.874 106.786 360.874 105.536C360.874 104.278 361.095 103.227 361.537 102.381C361.979 101.527 362.582 100.883 363.344 100.449C364.113 100.015 364.99 99.7974 365.973 99.7974C366.948 99.7974 367.817 100.015 368.579 100.449C369.349 100.883 369.951 101.527 370.385 102.381C370.827 103.227 371.048 104.278 371.048 105.536C371.048 106.786 370.827 107.837 370.385 108.691C369.951 109.544 369.349 110.188 368.579 110.623C367.817 111.057 366.948 111.274 365.973 111.274ZM365.927 109.72C366.636 109.72 367.238 109.552 367.733 109.217C368.229 108.874 368.602 108.39 368.853 107.765C369.113 107.14 369.242 106.397 369.242 105.536C369.242 104.233 368.972 103.208 368.431 102.461C367.889 101.706 367.085 101.329 366.019 101.329C365.302 101.329 364.696 101.501 364.201 101.844C363.713 102.179 363.34 102.663 363.081 103.295C362.829 103.92 362.703 104.667 362.703 105.536C362.703 106.824 362.974 107.845 363.515 108.599C364.064 109.346 364.868 109.72 365.927 109.72ZM374.521 111V100.049H376.304V111H374.521ZM375.755 106.062C375.755 104.675 375.888 103.524 376.155 102.609C376.422 101.687 376.811 101.001 377.321 100.552C377.839 100.095 378.468 99.866 379.207 99.866C379.451 99.866 379.672 99.885 379.87 99.9231C380.076 99.9536 380.282 100.003 380.488 100.072L380.373 101.832C380.16 101.764 379.927 101.706 379.676 101.661C379.425 101.607 379.2 101.581 379.002 101.581C378.354 101.581 377.832 101.767 377.435 102.141C377.039 102.507 376.75 103.025 376.567 103.695C376.391 104.366 376.304 105.155 376.304 106.062H375.755ZM386.737 111.274C385.753 111.274 384.877 111.057 384.107 110.623C383.345 110.188 382.743 109.544 382.301 108.691C381.859 107.837 381.638 106.786 381.638 105.536C381.638 104.278 381.859 103.227 382.301 102.381C382.743 101.527 383.345 100.883 384.107 100.449C384.877 100.015 385.753 99.7974 386.737 99.7974C387.712 99.7974 388.581 100.015 389.343 100.449C390.113 100.883 390.715 101.527 391.149 102.381C391.591 103.227 391.812 104.278 391.812 105.536C391.812 106.786 391.591 107.837 391.149 108.691C390.715 109.544 390.113 110.188 389.343 110.623C388.581 111.057 387.712 111.274 386.737 111.274ZM386.691 109.72C387.4 109.72 388.002 109.552 388.497 109.217C388.992 108.874 389.366 108.39 389.617 107.765C389.876 107.14 390.006 106.397 390.006 105.536C390.006 104.233 389.735 103.208 389.194 102.461C388.653 101.706 387.849 101.329 386.782 101.329C386.066 101.329 385.46 101.501 384.965 101.844C384.477 102.179 384.104 102.663 383.844 103.295C383.593 103.92 383.467 104.667 383.467 105.536C383.467 106.824 383.738 107.845 384.279 108.599C384.828 109.346 385.632 109.72 386.691 109.72ZM399.125 111.274C398.249 111.274 397.43 111.038 396.667 110.566C395.913 110.093 395.303 109.426 394.838 108.565C394.374 107.704 394.141 106.687 394.141 105.513C394.141 104.309 394.374 103.28 394.838 102.427C395.303 101.573 395.913 100.921 396.667 100.472C397.43 100.022 398.249 99.7974 399.125 99.7974C399.742 99.7974 400.295 99.8926 400.783 100.083C401.278 100.266 401.709 100.521 402.074 100.849C402.44 101.177 402.741 101.55 402.978 101.969C403.221 102.381 403.4 102.815 403.515 103.272L401.686 103.433C401.495 102.8 401.175 102.301 400.726 101.935C400.284 101.562 399.742 101.375 399.102 101.375C398.561 101.375 398.051 101.531 397.571 101.844C397.098 102.148 396.713 102.609 396.416 103.227C396.119 103.836 395.97 104.599 395.97 105.513C395.97 106.359 396.104 107.094 396.37 107.719C396.645 108.337 397.018 108.817 397.491 109.16C397.963 109.503 398.5 109.674 399.102 109.674C399.948 109.674 400.588 109.468 401.023 109.057C401.465 108.638 401.686 108.058 401.686 107.319H403.515C403.515 108.081 403.336 108.759 402.978 109.354C402.619 109.948 402.109 110.417 401.446 110.76C400.79 111.103 400.017 111.274 399.125 111.274ZM410.914 111.274C410.037 111.274 409.218 111.038 408.456 110.566C407.701 110.093 407.092 109.426 406.627 108.565C406.162 107.704 405.93 106.687 405.93 105.513C405.93 104.309 406.162 103.28 406.627 102.427C407.092 101.573 407.701 100.921 408.456 100.472C409.218 100.022 410.037 99.7974 410.914 99.7974C411.531 99.7974 412.083 99.8926 412.571 100.083C413.067 100.266 413.497 100.521 413.863 100.849C414.229 101.177 414.53 101.55 414.766 101.969C415.01 102.381 415.189 102.815 415.303 103.272L413.474 103.433C413.284 102.8 412.964 102.301 412.514 101.935C412.072 101.562 411.531 101.375 410.891 101.375C410.35 101.375 409.839 101.531 409.359 101.844C408.887 102.148 408.502 102.609 408.204 103.227C407.907 103.836 407.759 104.599 407.759 105.513C407.759 106.359 407.892 107.094 408.159 107.719C408.433 108.337 408.807 108.817 409.279 109.16C409.751 109.503 410.289 109.674 410.891 109.674C411.737 109.674 412.377 109.468 412.811 109.057C413.253 108.638 413.474 108.058 413.474 107.319H415.303C415.303 108.081 415.124 108.759 414.766 109.354C414.408 109.948 413.897 110.417 413.234 110.76C412.579 111.103 411.805 111.274 410.914 111.274ZM422.816 111.274C421.833 111.274 420.957 111.057 420.187 110.623C419.425 110.188 418.823 109.544 418.381 108.691C417.939 107.837 417.718 106.786 417.718 105.536C417.718 104.278 417.939 103.227 418.381 102.381C418.823 101.527 419.425 100.883 420.187 100.449C420.957 100.015 421.833 99.7974 422.816 99.7974C423.792 99.7974 424.661 100.015 425.423 100.449C426.192 100.883 426.795 101.527 427.229 102.381C427.671 103.227 427.892 104.278 427.892 105.536C427.892 106.786 427.671 107.837 427.229 108.691C426.795 109.544 426.192 110.188 425.423 110.623C424.661 111.057 423.792 111.274 422.816 111.274ZM422.771 109.72C423.479 109.72 424.082 109.552 424.577 109.217C425.072 108.874 425.446 108.39 425.697 107.765C425.956 107.14 426.086 106.397 426.086 105.536C426.086 104.233 425.815 103.208 425.274 102.461C424.733 101.706 423.929 101.329 422.862 101.329C422.146 101.329 421.54 101.501 421.045 101.844C420.557 102.179 420.183 102.663 419.924 103.295C419.673 103.92 419.547 104.667 419.547 105.536C419.547 106.824 419.818 107.845 420.359 108.599C420.907 109.346 421.711 109.72 422.771 109.72ZM437.796 97.4883C437.43 97.4883 437.14 97.3854 436.927 97.1796C436.713 96.9662 436.607 96.6881 436.607 96.3451C436.607 96.0098 436.713 95.7431 436.927 95.545C437.14 95.3468 437.43 95.2477 437.796 95.2477C438.161 95.2477 438.451 95.3468 438.664 95.545C438.878 95.7431 438.984 96.0098 438.984 96.3451C438.984 96.6881 438.878 96.9662 438.664 97.1796C438.451 97.3854 438.161 97.4883 437.796 97.4883ZM436.904 111V100.049H438.687V111H436.904ZM451.372 111V104.576C451.372 103.532 451.121 102.739 450.618 102.198C450.123 101.649 449.444 101.375 448.583 101.375C447.928 101.375 447.36 101.554 446.88 101.912C446.4 102.27 446.03 102.785 445.771 103.455C445.512 104.118 445.382 104.911 445.382 105.833H444.697C444.697 104.56 444.864 103.474 445.2 102.575C445.535 101.676 446.023 100.99 446.663 100.518C447.311 100.037 448.095 99.7974 449.018 99.7974C449.879 99.7974 450.614 99.9917 451.224 100.38C451.841 100.761 452.314 101.31 452.641 102.026C452.969 102.743 453.133 103.593 453.133 104.576V111H451.372ZM443.599 111V100.072H445.131L445.382 102.587V111H443.599ZM466.618 111.274C465.673 111.274 464.827 111.034 464.08 110.554C463.341 110.066 462.754 109.392 462.319 108.531C461.893 107.67 461.679 106.679 461.679 105.559C461.679 104.362 461.893 103.333 462.319 102.472C462.746 101.611 463.329 100.952 464.068 100.495C464.815 100.03 465.665 99.7974 466.618 99.7974C467.448 99.7974 468.157 99.965 468.744 100.3C469.331 100.636 469.803 101.089 470.161 101.661C470.519 102.232 470.767 102.88 470.904 103.604C471.049 104.32 471.091 105.063 471.03 105.833H463.12V104.736H469.853L469.327 105.079C469.35 104.629 469.323 104.179 469.247 103.73C469.178 103.28 469.045 102.869 468.847 102.495C468.649 102.114 468.37 101.809 468.012 101.581C467.654 101.352 467.197 101.238 466.64 101.238C465.939 101.238 465.353 101.417 464.88 101.775C464.408 102.133 464.053 102.606 463.817 103.192C463.581 103.772 463.463 104.4 463.463 105.079V105.81C463.463 106.572 463.577 107.254 463.806 107.856C464.042 108.458 464.392 108.935 464.857 109.285C465.322 109.636 465.909 109.811 466.618 109.811C467.326 109.811 467.909 109.64 468.367 109.297C468.824 108.954 469.102 108.447 469.201 107.776H471.053C470.939 108.5 470.68 109.125 470.276 109.651C469.872 110.169 469.357 110.569 468.732 110.851C468.107 111.133 467.403 111.274 466.618 111.274ZM472.669 100.072H474.703L478.133 109.468H477.881L481.311 100.072H483.345L478.979 111H477.035L472.669 100.072ZM489.86 111.274C488.915 111.274 488.069 111.034 487.322 110.554C486.583 110.066 485.996 109.392 485.562 108.531C485.135 107.67 484.921 106.679 484.921 105.559C484.921 104.362 485.135 103.333 485.562 102.472C485.988 101.611 486.571 100.952 487.31 100.495C488.057 100.03 488.907 99.7974 489.86 99.7974C490.69 99.7974 491.399 99.965 491.986 100.3C492.573 100.636 493.045 101.089 493.403 101.661C493.762 102.232 494.009 102.88 494.146 103.604C494.291 104.32 494.333 105.063 494.272 105.833H486.362V104.736H493.095L492.569 105.079C492.592 104.629 492.565 104.179 492.489 103.73C492.42 103.28 492.287 102.869 492.089 102.495C491.891 102.114 491.612 101.809 491.254 101.581C490.896 101.352 490.439 101.238 489.883 101.238C489.181 101.238 488.595 101.417 488.122 101.775C487.65 102.133 487.295 102.606 487.059 103.192C486.823 103.772 486.705 104.4 486.705 105.079V105.81C486.705 106.572 486.819 107.254 487.048 107.856C487.284 108.458 487.634 108.935 488.099 109.285C488.564 109.636 489.151 109.811 489.86 109.811C490.568 109.811 491.151 109.64 491.609 109.297C492.066 108.954 492.344 108.447 492.443 107.776H494.295C494.181 108.5 493.922 109.125 493.518 109.651C493.114 110.169 492.599 110.569 491.974 110.851C491.35 111.133 490.645 111.274 489.86 111.274ZM497.808 111V100.049H499.592V111H497.808ZM499.043 106.062C499.043 104.675 499.176 103.524 499.443 102.609C499.71 101.687 500.098 101.001 500.609 100.552C501.127 100.095 501.756 99.866 502.495 99.866C502.739 99.866 502.96 99.885 503.158 99.9231C503.364 99.9536 503.57 100.003 503.775 100.072L503.661 101.832C503.448 101.764 503.215 101.706 502.964 101.661C502.712 101.607 502.488 101.581 502.289 101.581C501.642 101.581 501.12 101.767 500.723 102.141C500.327 102.507 500.037 103.025 499.855 103.695C499.679 104.366 499.592 105.155 499.592 106.062H499.043ZM504.263 100.072H506.252L509.819 109.445H509.407L512.173 100.072H514.002L509.887 113.195C509.544 114.292 509.087 115.138 508.515 115.733C507.944 116.327 507.212 116.624 506.321 116.624C505.841 116.624 505.383 116.556 504.949 116.418C504.522 116.281 504.08 116.083 503.623 115.824V114.178C504.027 114.498 504.415 114.727 504.789 114.864C505.17 115.001 505.566 115.07 505.978 115.07C506.435 115.07 506.816 114.925 507.121 114.635C507.433 114.346 507.692 113.972 507.898 113.515C508.104 113.065 508.279 112.593 508.424 112.097L508.744 111L504.263 100.072ZM526.054 111.274C525.17 111.274 524.358 111.038 523.619 110.566C522.88 110.086 522.289 109.415 521.847 108.554C521.405 107.685 521.184 106.664 521.184 105.49C521.184 104.324 521.401 103.314 521.836 102.461C522.27 101.607 522.845 100.952 523.562 100.495C524.286 100.03 525.078 99.7974 525.94 99.7974C526.74 99.7974 527.441 99.9917 528.043 100.38C528.653 100.769 529.125 101.329 529.46 102.061C529.796 102.792 529.963 103.676 529.963 104.713H529.277C529.277 103.989 529.133 103.379 528.843 102.884C528.561 102.388 528.192 102.015 527.734 101.764C527.277 101.504 526.785 101.375 526.26 101.375C525.665 101.375 525.12 101.543 524.625 101.878C524.137 102.206 523.745 102.678 523.448 103.295C523.158 103.905 523.013 104.637 523.013 105.49C523.013 106.359 523.158 107.106 523.448 107.731C523.745 108.356 524.137 108.836 524.625 109.171C525.12 109.506 525.665 109.674 526.26 109.674C526.755 109.674 527.231 109.544 527.689 109.285C528.153 109.026 528.534 108.649 528.832 108.154C529.129 107.651 529.277 107.045 529.277 106.336H529.963C529.963 107.395 529.788 108.295 529.438 109.034C529.095 109.765 528.626 110.322 528.031 110.703C527.445 111.084 526.785 111.274 526.054 111.274ZM529.575 111L529.277 108.439V95.4078H531.061V111H529.575ZM539.492 111.274C538.547 111.274 537.701 111.034 536.954 110.554C536.215 110.066 535.628 109.392 535.194 108.531C534.767 107.67 534.554 106.679 534.554 105.559C534.554 104.362 534.767 103.333 535.194 102.472C535.62 101.611 536.203 100.952 536.943 100.495C537.69 100.03 538.539 99.7974 539.492 99.7974C540.323 99.7974 541.031 99.965 541.618 100.3C542.205 100.636 542.677 101.089 543.036 101.661C543.394 102.232 543.641 102.88 543.779 103.604C543.923 104.32 543.965 105.063 543.904 105.833H535.994V104.736H542.727L542.201 105.079C542.224 104.629 542.197 104.179 542.121 103.73C542.052 103.28 541.919 102.869 541.721 102.495C541.523 102.114 541.245 101.809 540.886 101.581C540.528 101.352 540.071 101.238 539.515 101.238C538.814 101.238 538.227 101.417 537.754 101.775C537.282 102.133 536.927 102.606 536.691 103.192C536.455 103.772 536.337 104.4 536.337 105.079V105.81C536.337 106.572 536.451 107.254 536.68 107.856C536.916 108.458 537.267 108.935 537.731 109.285C538.196 109.636 538.783 109.811 539.492 109.811C540.201 109.811 540.784 109.64 541.241 109.297C541.698 108.954 541.976 108.447 542.075 107.776H543.927C543.813 108.5 543.554 109.125 543.15 109.651C542.746 110.169 542.232 110.569 541.607 110.851C540.982 111.133 540.277 111.274 539.492 111.274ZM550.801 111.274C550.207 111.274 549.673 111.16 549.201 110.931C548.728 110.703 548.355 110.36 548.081 109.903C547.806 109.445 547.669 108.874 547.669 108.188V97.031H549.429V108.142C549.429 109.27 549.955 109.834 551.007 109.834C551.319 109.834 551.62 109.8 551.91 109.731C552.207 109.663 552.539 109.56 552.905 109.422L553.156 110.703C552.767 110.87 552.379 111.008 551.99 111.114C551.609 111.221 551.213 111.274 550.801 111.274ZM545.909 101.306V100.072H552.882V101.306H545.909ZM562.804 111L562.575 108.599V103.913C562.575 102.93 562.365 102.225 561.946 101.798C561.527 101.363 560.898 101.146 560.06 101.146C559.588 101.146 559.157 101.215 558.768 101.352C558.387 101.489 558.082 101.703 557.854 101.992C557.633 102.274 557.522 102.64 557.522 103.09H555.533C555.533 102.297 555.728 101.661 556.116 101.181C556.505 100.693 557.038 100.342 557.717 100.129C558.402 99.9079 559.184 99.7974 560.06 99.7974C560.898 99.7974 561.641 99.9384 562.289 100.22C562.937 100.502 563.444 100.952 563.809 101.569C564.175 102.179 564.358 102.975 564.358 103.958V111H562.804ZM559.077 111.274C558.178 111.274 557.435 111.114 556.848 110.794C556.261 110.474 555.823 110.059 555.533 109.548C555.244 109.038 555.099 108.5 555.099 107.936C555.099 107.197 555.282 106.595 555.648 106.13C556.021 105.665 556.528 105.326 557.168 105.113C557.808 104.892 558.528 104.781 559.328 104.781C559.9 104.781 560.472 104.839 561.043 104.953C561.622 105.067 562.186 105.223 562.735 105.422V106.542C562.278 106.359 561.759 106.214 561.18 106.107C560.609 106.001 560.083 105.947 559.603 105.947C558.871 105.947 558.254 106.1 557.751 106.405C557.248 106.702 556.996 107.212 556.996 107.936C556.996 108.47 557.187 108.927 557.568 109.308C557.957 109.689 558.574 109.88 559.42 109.88C560.014 109.88 560.548 109.743 561.02 109.468C561.5 109.186 561.878 108.836 562.152 108.417C562.434 107.997 562.575 107.578 562.575 107.159H563.009C563.009 107.891 562.849 108.569 562.529 109.194C562.217 109.819 561.767 110.322 561.18 110.703C560.593 111.084 559.892 111.274 559.077 111.274ZM569.634 97.4883C569.269 97.4883 568.979 97.3854 568.766 97.1796C568.552 96.9662 568.446 96.6881 568.446 96.3451C568.446 96.0098 568.552 95.7431 568.766 95.545C568.979 95.3468 569.269 95.2477 569.634 95.2477C570 95.2477 570.29 95.3468 570.503 95.545C570.717 95.7431 570.823 96.0098 570.823 96.3451C570.823 96.6881 570.717 96.9662 570.503 97.1796C570.29 97.3854 570 97.4883 569.634 97.4883ZM568.743 111V100.049H570.526V111H568.743ZM575.438 111V95.4078H577.221V111H575.438Z" fill="#0E1B2B"/>
<path d="M85.155 83V82.2312C86.1287 82.1287 87.1025 81.6675 88.0763 80.8475C89.1013 79.9762 90.0494 78.8999 90.9207 77.6187C91.792 76.3374 92.4582 75.0817 92.9195 73.8517L113.215 24.1896H113.907L133.895 73.8517C136.15 79.4381 138.661 82.2312 141.428 82.2312H141.659V83H117.059V82.2312H117.366C119.672 82.2312 121.21 81.5393 121.979 80.1556C122.799 78.7206 122.696 76.7474 121.671 74.2361L117.059 62.7815H98.5315L94.2264 73.4673C93.3039 75.6711 93.4064 77.6699 94.5339 79.4637C95.7127 81.2062 97.5833 82.1287 100.146 82.2312V83H85.155ZM98.9158 61.7821H116.674L107.91 39.6417L98.9158 61.7821ZM139.552 83V82.2312C141.397 82.2312 142.883 81.6675 144.011 80.54C145.19 79.4124 145.779 77.9262 145.779 76.0811V45.3306H139.245L140.013 43.9468H145.779V42.1787C145.779 38.2836 146.42 34.9267 147.701 32.1079C149.034 29.2378 150.904 27.0084 153.313 25.4196C155.722 23.8308 158.566 23.0365 161.846 23.0365C164.101 23.0365 166.228 23.3952 168.227 24.1127C170.277 24.779 172.02 25.7271 173.455 26.9571C174.941 28.1359 175.992 29.5197 176.607 31.1085L167.381 36.3361C167.33 34.491 167.176 32.8254 166.92 31.3391C166.715 29.8528 166.356 28.5459 165.844 27.4184C164.819 25.1634 163.512 24.0358 161.923 24.0358C160.283 24.0358 159.053 25.2915 158.233 27.8028C157.311 30.3141 156.849 33.7479 156.849 38.1042V43.9468H167.228L166.459 45.3306H156.849V76.0811C156.849 77.9262 157.541 79.4124 158.925 80.54C160.36 81.6675 162.231 82.2312 164.537 82.2312H164.614V83H139.552ZM186.351 84.0763C182.149 84.0763 178.459 83.2306 175.281 81.5393C172.155 79.8481 169.72 77.4649 167.978 74.3899C166.235 71.3148 165.364 67.676 165.364 63.4734C165.364 59.2708 166.235 55.632 167.978 52.557C169.72 49.4819 172.155 47.0987 175.281 45.4075C178.459 43.7162 182.149 42.8706 186.351 42.8706C190.554 42.8706 194.218 43.7162 197.345 45.4075C200.471 47.0987 202.905 49.4819 204.648 52.557C206.39 55.632 207.262 59.2708 207.262 63.4734C207.262 67.676 206.39 71.3148 204.648 74.3899C202.905 77.4649 200.471 79.8481 197.345 81.5393C194.218 83.2306 190.554 84.0763 186.351 84.0763ZM186.274 83.0769C188.068 83.0769 189.606 82.18 190.887 80.3862C192.168 78.5924 193.168 76.2093 193.885 73.2367C194.603 70.2129 194.961 66.9328 194.961 63.3965C194.961 59.5527 194.577 56.1702 193.808 53.2489C193.091 50.2763 192.066 47.97 190.733 46.33C189.452 44.6387 187.991 43.7931 186.351 43.7931C184.609 43.7931 183.071 44.69 181.739 46.4837C180.457 48.2775 179.458 50.6607 178.74 53.6332C178.023 56.6058 177.664 59.8602 177.664 63.3965C177.664 67.2916 178.049 70.7254 178.817 73.698C179.586 76.6705 180.611 78.9768 181.892 80.6168C183.225 82.2569 184.686 83.0769 186.274 83.0769ZM239.236 85.1525L239.159 75.2355C237.826 77.8493 235.802 79.9762 233.085 81.6162C230.369 83.2563 227.499 84.0763 224.475 84.0763C221.041 84.0763 218.274 82.9487 216.173 80.6937C214.123 78.4387 213.098 75.4661 213.098 71.7761V50.8657C213.098 48.9182 212.713 47.4063 211.944 46.33C211.176 45.2537 209.484 44.7156 206.871 44.7156V43.9468H214.635C217.249 43.9468 219.248 43.6649 220.631 43.1012C221.913 42.5374 222.81 41.8455 223.322 41.0255H224.091V72.5448C224.091 75.1074 224.603 77.1574 225.628 78.6949C226.653 80.2325 227.986 81.0012 229.626 81.0012C231.215 81.0012 232.855 80.335 234.546 79.0024C236.237 77.6187 237.724 75.7736 239.005 73.4673V50.8657C239.005 49.0207 238.544 47.5344 237.621 46.4069C236.699 45.2793 235.11 44.7156 232.855 44.7156V43.9468H240.619C243.233 43.9468 245.232 43.6649 246.616 43.1012C247.948 42.5374 248.871 41.8455 249.383 41.0255H250.152L250.075 76.0811C250.075 77.9262 250.639 79.4381 251.766 80.6168C252.894 81.7444 254.38 82.3081 256.225 82.3081V83H248.614C247.282 83 246.103 83.0256 245.078 83.0769C244.053 83.1794 243.208 83.2819 242.541 83.3844C241.157 83.6919 240.184 84.2813 239.62 85.1525H239.236ZM270.625 84.0763C269.292 84.0763 268.293 84.025 267.626 83.9225C266.96 83.82 266.319 83.6919 265.704 83.5381C265.141 83.3844 264.372 83.2563 263.398 83.1538C262.424 83.0513 260.938 83 258.939 83L257.094 68.5472H258.094C258.914 73.3648 260.451 77.0036 262.706 79.4637C264.961 81.8725 267.421 83.0769 270.086 83.0769C272.7 83.0769 274.673 82.5387 276.006 81.4625C277.39 80.3862 278.082 78.9256 278.082 77.0805C278.082 75.9018 277.774 74.8767 277.159 74.0055C276.595 73.083 275.596 72.1604 274.161 71.2379C272.726 70.2642 270.778 69.111 268.318 67.7785L266.089 66.5485C263.27 64.9597 261.169 63.1147 259.785 61.0134C258.452 58.8608 257.786 56.5545 257.786 54.0945C257.786 50.6094 259.042 47.8675 261.553 45.8687C264.116 43.8699 267.524 42.8706 271.778 42.8706C272.854 42.8706 273.725 42.9218 274.391 43.0243C275.058 43.1268 275.698 43.2549 276.313 43.4087C276.928 43.5624 277.697 43.6906 278.62 43.7931C279.542 43.8956 280.772 43.9468 282.31 43.9468L283.386 56.3239H282.463C282.156 53.9151 281.464 51.7882 280.388 49.9432C279.363 48.0469 278.133 46.5862 276.698 45.5612C275.263 44.485 273.802 43.9468 272.316 43.9468C270.368 43.9468 268.805 44.4593 267.626 45.4843C266.499 46.5094 265.935 47.9444 265.935 49.7894C265.935 51.1732 266.371 52.4545 267.242 53.6332C268.164 54.7608 269.907 55.9908 272.47 57.3233L274.776 58.4764C278.363 60.3215 280.977 62.2434 282.617 64.2422C284.257 66.241 285.077 68.8035 285.077 71.9298C285.077 79.9249 280.26 83.9738 270.625 84.0763ZM304.055 83L304.132 82.2312H304.209C306.054 82.2312 307.54 81.7444 308.668 80.7706C309.795 79.7968 310.359 78.3874 310.359 76.5424V32.2616C310.359 30.4166 309.795 28.9303 308.668 27.8028C307.54 26.6753 306.054 26.1115 304.209 26.1115L304.132 25.3427H345.338L347.644 40.7949H346.875C345.338 31.1597 339.264 26.3421 328.655 26.3421H322.198V48.5594H329.117C331.679 48.5594 333.729 47.7906 335.267 46.2531C336.804 44.6643 337.573 42.5887 337.573 40.0261H338.342V58.9377H337.573C337.522 56.1702 336.65 53.9151 334.959 52.1726C333.268 50.4301 331.039 49.5588 328.271 49.5588H322.198V76.5424C322.198 80.1812 323.992 82.0006 327.579 82.0006H330.808C335.779 82.0006 339.726 80.7193 342.647 78.1568C345.568 75.5942 347.439 71.5711 348.259 66.0872H349.028L346.721 83H304.055ZM365.744 84.0763C364.411 84.0763 363.412 84.025 362.746 83.9225C362.08 83.82 361.439 83.6919 360.824 83.5381C360.26 83.3844 359.491 83.2563 358.518 83.1538C357.544 83.0513 356.058 83 354.059 83L352.214 68.5472H353.213C354.033 73.3648 355.571 77.0036 357.826 79.4637C360.081 81.8725 362.541 83.0769 365.206 83.0769C367.82 83.0769 369.793 82.5387 371.125 81.4625C372.509 80.3862 373.201 78.9256 373.201 77.0805C373.201 75.9018 372.893 74.8767 372.278 74.0055C371.715 73.083 370.715 72.1604 369.28 71.2379C367.845 70.2642 365.898 69.111 363.438 67.7785L361.208 66.5485C358.389 64.9597 356.288 63.1147 354.904 61.0134C353.572 58.8608 352.906 56.5545 352.906 54.0945C352.906 50.6094 354.161 47.8675 356.673 45.8687C359.235 43.8699 362.643 42.8706 366.897 42.8706C367.973 42.8706 368.845 42.9218 369.511 43.0243C370.177 43.1268 370.818 43.2549 371.433 43.4087C372.048 43.5624 372.817 43.6906 373.739 43.7931C374.662 43.8956 375.892 43.9468 377.429 43.9468L378.505 56.3239H377.583C377.275 53.9151 376.584 51.7882 375.507 49.9432C374.482 48.0469 373.252 46.5862 371.817 45.5612C370.382 44.485 368.922 43.9468 367.435 43.9468C365.488 43.9468 363.925 44.4593 362.746 45.4843C361.618 46.5094 361.055 47.9444 361.055 49.7894C361.055 51.1732 361.49 52.4545 362.361 53.6332C363.284 54.7608 365.026 55.9908 367.589 57.3233L369.895 58.4764C373.483 60.3215 376.097 62.2434 377.737 64.2422C379.377 66.241 380.197 68.8035 380.197 71.9298C380.197 79.9249 375.379 83.9738 365.744 84.0763ZM397.726 84.0763C396.393 84.0763 395.394 84.025 394.728 83.9225C394.061 83.82 393.421 83.6919 392.806 83.5381C392.242 83.3844 391.473 83.2563 390.499 83.1538C389.526 83.0513 388.039 83 386.041 83L384.196 68.5472H385.195C386.015 73.3648 387.552 77.0036 389.807 79.4637C392.063 81.8725 394.523 83.0769 397.188 83.0769C399.801 83.0769 401.775 82.5387 403.107 81.4625C404.491 80.3862 405.183 78.9256 405.183 77.0805C405.183 75.9018 404.875 74.8767 404.26 74.0055C403.696 73.083 402.697 72.1604 401.262 71.2379C399.827 70.2642 397.879 69.111 395.419 67.7785L393.19 66.5485C390.371 64.9597 388.27 63.1147 386.886 61.0134C385.554 58.8608 384.887 56.5545 384.887 54.0945C384.887 50.6094 386.143 47.8675 388.654 45.8687C391.217 43.8699 394.625 42.8706 398.879 42.8706C399.955 42.8706 400.826 42.9218 401.493 43.0243C402.159 43.1268 402.8 43.2549 403.415 43.4087C404.03 43.5624 404.798 43.6906 405.721 43.7931C406.643 43.8956 407.873 43.9468 409.411 43.9468L410.487 56.3239H409.565C409.257 53.9151 408.565 51.7882 407.489 49.9432C406.464 48.0469 405.234 46.5862 403.799 45.5612C402.364 44.485 400.903 43.9468 399.417 43.9468C397.469 43.9468 395.906 44.4593 394.728 45.4843C393.6 46.5094 393.036 47.9444 393.036 49.7894C393.036 51.1732 393.472 52.4545 394.343 53.6332C395.266 54.7608 397.008 55.9908 399.571 57.3233L401.877 58.4764C405.465 60.3215 408.078 62.2434 409.718 64.2422C411.358 66.241 412.178 68.8035 412.178 71.9298C412.178 79.9249 407.361 83.9738 397.726 84.0763ZM433.954 83.9225C430.417 83.9225 427.265 83.0513 424.498 81.3087C421.782 79.5662 419.655 77.1574 418.117 74.0823C416.58 70.956 415.811 67.3941 415.811 63.3965C415.811 59.2965 416.657 55.7089 418.348 52.6338C420.039 49.5588 422.345 47.1756 425.267 45.4843C428.239 43.7418 431.596 42.8706 435.337 42.8706C438.464 42.8706 441.231 43.4856 443.64 44.7156C446.1 45.9456 448.048 47.6881 449.483 49.9432C450.969 52.147 451.815 54.7095 452.02 57.6308L452.097 58.784H426.266V59.1683C426.266 64.6009 427.47 68.9573 429.879 72.2373C432.288 75.4661 435.517 77.0805 439.566 77.0805C442.026 77.0805 444.358 76.4911 446.561 75.3124C448.816 74.0823 450.636 72.4423 452.02 70.3923L452.712 70.6229C451.84 73.2367 450.482 75.543 448.637 77.5418C446.792 79.5406 444.614 81.1037 442.103 82.2312C439.591 83.3588 436.875 83.9225 433.954 83.9225ZM426.343 57.6308H441.949C441.949 53.582 441.283 50.3019 439.95 47.7906C438.669 45.2793 436.849 44.0237 434.492 44.0237C432.237 44.0237 430.366 45.2537 428.88 47.7138C427.394 50.1738 426.548 53.4795 426.343 57.6308ZM453.074 83V82.2312H453.151C454.996 82.2312 456.482 81.6675 457.61 80.54C458.738 79.4124 459.301 77.9262 459.301 76.0811V50.8657C459.301 48.9182 458.891 47.4063 458.071 46.33C457.302 45.2537 455.637 44.7156 453.074 44.7156V43.9468H460.685C463.299 43.9468 465.298 43.6649 466.681 43.1012C467.963 42.5374 468.86 41.8455 469.372 41.0255H470.141L470.218 51.7882C471.55 49.1232 473.575 46.9706 476.291 45.3306C479.007 43.6906 481.877 42.8706 484.901 42.8706C488.335 42.8706 491.077 43.9981 493.127 46.2531C495.228 48.5081 496.279 51.4807 496.279 55.1708V76.0811C496.279 77.9262 496.843 79.4124 497.97 80.54C499.098 81.6675 500.584 82.2312 502.429 82.2312H502.506V83H479.058V82.2312H479.135C480.98 82.2312 482.467 81.6675 483.594 80.54C484.722 79.4124 485.285 77.9262 485.285 76.0811V54.402C485.285 51.8395 484.773 49.7894 483.748 48.2519C482.774 46.7144 481.467 45.9456 479.827 45.9456C478.238 45.9456 476.573 46.6375 474.83 48.0213C473.139 49.3538 471.653 51.1732 470.371 53.4795V76.0811C470.371 77.9262 470.935 79.4124 472.063 80.54C473.19 81.6675 474.677 82.2312 476.522 82.2312H476.598V83H453.074ZM519.608 84.0763C516.123 84.0763 513.023 83.2306 510.306 81.5393C507.59 79.7968 505.463 77.388 503.926 74.313C502.439 71.2379 501.696 67.7272 501.696 63.7809C501.696 59.6808 502.542 56.0677 504.233 52.9414C505.924 49.7638 508.231 47.3038 511.152 45.5612C514.125 43.7674 517.456 42.8706 521.146 42.8706C525.451 42.8706 529.013 44.0493 531.832 46.4069C534.702 48.7132 536.419 51.8651 536.982 55.8627L527.757 61.0134C527.757 55.7858 527.091 51.6345 525.758 48.5594C524.426 45.5356 522.555 44.0237 520.146 44.0237C518.506 44.0237 517.071 44.69 515.841 46.0225C514.663 47.355 513.74 49.1488 513.074 51.4038C512.459 53.6589 512.151 56.1702 512.151 58.9377C512.151 62.474 512.689 65.6003 513.766 68.3166C514.842 70.9817 516.354 73.083 518.301 74.6205C520.249 76.1068 522.555 76.8499 525.22 76.8499C527.68 76.8499 530.012 76.2349 532.216 75.0049C534.471 73.7748 536.316 72.1092 537.751 70.0079L538.52 70.2385C537.649 73.0061 536.265 75.4405 534.369 77.5418C532.472 79.5918 530.243 81.2062 527.68 82.385C525.169 83.5125 522.478 84.0763 519.608 84.0763ZM559.103 83.9225C555.567 83.9225 552.415 83.0513 549.647 81.3087C546.931 79.5662 544.804 77.1574 543.266 74.0823C541.729 70.956 540.96 67.3941 540.96 63.3965C540.96 59.2965 541.806 55.7089 543.497 52.6338C545.188 49.5588 547.495 47.1756 550.416 45.4843C553.389 43.7418 556.745 42.8706 560.487 42.8706C563.613 42.8706 566.381 43.4856 568.789 44.7156C571.249 45.9456 573.197 47.6881 574.632 49.9432C576.118 52.147 576.964 54.7095 577.169 57.6308L577.246 58.784H551.415V59.1683C551.415 64.6009 552.62 68.9573 555.029 72.2373C557.437 75.4661 560.666 77.0805 564.715 77.0805C567.175 77.0805 569.507 76.4911 571.711 75.3124C573.966 74.0823 575.785 72.4423 577.169 70.3923L577.861 70.6229C576.99 73.2367 575.631 75.543 573.786 77.5418C571.941 79.5406 569.763 81.1037 567.252 82.2312C564.741 83.3588 562.024 83.9225 559.103 83.9225ZM551.492 57.6308H567.098C567.098 53.582 566.432 50.3019 565.099 47.7906C563.818 45.2793 561.999 44.0237 559.641 44.0237C557.386 44.0237 555.515 45.2537 554.029 47.7138C552.543 50.1738 551.697 53.4795 551.492 57.6308Z" fill="#0E1B2B"/>
<path d="M27.5407 11.66C27.0886 11.7354 26.2598 12.3382 25.657 12.9409L24.5644 14.0712L24.4514 36.374C24.3761 51.3304 24.4891 59.4679 24.7528 61.1256C26.2598 70.0165 33.5308 76.195 42.4594 76.195C51.3881 76.195 58.6591 70.0165 60.1661 61.1256C60.4298 59.4679 60.5428 51.3304 60.4674 36.374L60.3544 14.0335L59.1489 12.8656C57.4912 11.1703 55.3062 11.1703 53.6485 12.8656L52.443 14.0335L52.2546 37.8809C52.0662 61.54 51.707 61.5964 51.2374 63.0092C48.4576 69.2253 36.873 70.073 33.6815 63.0092C32.8304 61.1256 32.8526 61.54 32.6643 37.8809L32.4759 14.0335L31.3457 12.9409C30.1778 11.8484 28.9346 11.3963 27.5407 11.66Z" fill="#D1A043"/>
<path d="M3.01509 39.9151C1.88488 40.1412 0.377929 41.7611 0.0765398 43.042C-0.300197 44.6997 0.754666 46.7341 2.29929 47.3745C3.05276 47.6759 4.10762 47.9396 4.67273 47.9396C6.25502 47.9396 8.62846 49.4842 9.53263 51.0665C10.2108 52.2721 10.3615 53.3646 10.5498 57.8478C10.8135 64.29 11.6424 67.8313 13.9781 72.6159C18.0092 80.8287 26.0714 87.2709 34.9247 89.3807C39.2948 90.3979 45.624 90.3979 49.9942 89.3807C58.8475 87.2709 66.9096 80.8287 70.9407 72.6159C73.2765 67.8313 74.1053 64.29 74.369 57.8478C74.5574 53.3646 74.7081 52.2721 75.3862 51.1042C76.3657 49.3712 78.0987 48.2787 80.5852 47.9019C83.0716 47.4875 84.1642 46.7341 84.6916 44.9634C85.0307 43.7578 85.0307 43.3058 84.5032 42.2132C83.6744 40.4802 82.3558 39.8021 79.9071 39.9151C75.9136 40.1035 71.3928 42.6276 69.0947 45.9429C67.0227 48.9191 66.4952 51.0665 66.3069 56.7929C66.2315 59.6938 65.9301 63.0468 65.6287 64.2523C63.0292 74.6879 53.3094 82.2227 42.4594 82.2227C31.6094 82.2227 21.8896 74.6879 19.2901 64.2523C18.9887 63.0468 18.6873 59.6938 18.612 56.7929C18.4613 52.5358 18.2729 51.1042 17.5948 49.3335C16.0502 45.2648 12.5465 41.8742 8.59079 40.6309C6.59408 39.9905 4.18297 39.6891 3.01509 39.9151Z" fill="#0E1B2B"/>
<path d="M46.6201 38.3133V0.0113903C46.6201 0.0113903 42.6109 -0.200983 40.6636 1.20833C39.2737 2.21418 38.1504 3.24935 38.1435 4.32035C38.1366 5.39135 38.1435 38.3133 38.1435 38.3133L42.6604 43.1293L46.6201 38.3133Z" fill="#A5542B"/>
<path d="M42.6601 43.1293C46.3332 45.9548 50.0116 53.0038 50.0116 57.2172C50.0116 61.4305 46.6587 64.8461 42.5233 64.8461C38.3881 64.846 35.036 61.4304 35.036 57.2172C35.0361 53.0038 39.4107 46.0961 42.6601 43.1293ZM42.4101 50.0121C40.9268 51.3664 38.9922 54.6025 38.9921 56.5258C38.9921 58.449 40.5225 60.0081 42.4101 60.0082C44.2978 60.0082 45.828 58.4491 45.828 56.5258C45.828 54.6024 44.0868 51.3019 42.4101 50.0121Z" fill="#4A6A5A"/>
</svg>
